<svg xmlns="http://www.w3.org/2000/svg" xmlns:xlink="http://www.w3.org/1999/xlink" version="1.1" width="256" height="256" viewBox="0 0 256 256" xml:space="preserve">

<defs>
</defs>
<g style="stroke: none; stroke-width: 0; stroke-dasharray: none; stroke-linecap: butt; stroke-linejoin: miter; stroke-miterlimit: 10; fill: none; fill-rule: nonzero; opacity: 1;" transform="translate(1.4065934065934016 1.4065934065934016) scale(2.81 2.81)" >
	<rect x="32.58" y="72.35" rx="0" ry="0" width="24.84" height="9.81" style="stroke: none; stroke-width: 1; stroke-dasharray: none; stroke-linecap: butt; stroke-linejoin: miter; stroke-miterlimit: 10; fill: rgb(249,249,249); fill-rule: nonzero; opacity: 1;" transform=" matrix(1 0 0 1 0 0) "/>
	<path d="M 89 59.273 V 13.806 c 0 -3.295 -2.671 -5.966 -5.966 -5.966 H 6.966 C 3.671 7.84 1 10.511 1 13.806 v 45.467 H 89 z" style="stroke: none; stroke-width: 1; stroke-dasharray: none; stroke-linecap: butt; stroke-linejoin: miter; stroke-miterlimit: 10; fill: rgb(129,188,218); fill-rule: nonzero; opacity: 1;" transform=" matrix(1 0 0 1 0 0) " stroke-linecap="round" />
	<path d="M 1 59.273 v 7.109 c 0 3.295 2.671 5.966 5.966 5.966 h 76.068 c 3.295 0 5.966 -2.671 5.966 -5.966 v -7.109 H 1 z" style="stroke: none; stroke-width: 1; stroke-dasharray: none; stroke-linecap: butt; stroke-linejoin: miter; stroke-miterlimit: 10; fill: rgb(249,249,249); fill-rule: nonzero; opacity: 1;" transform=" matrix(1 0 0 1 0 0) " stroke-linecap="round" />
	<circle cx="31.592999999999996" cy="25.063000000000002" r="4.943" style="stroke: none; stroke-width: 1; stroke-dasharray: none; stroke-linecap: butt; stroke-linejoin: miter; stroke-miterlimit: 10; fill: rgb(255,190,0); fill-rule: nonzero; opacity: 1;" transform="  matrix(1 0 0 1 0 0) "/>
	<path d="M 31.595 31.01 c -3.277 0 -5.943 -2.666 -5.943 -5.943 c 0 -3.277 2.666 -5.943 5.943 -5.943 c 3.277 0 5.943 2.666 5.943 5.943 C 37.539 28.344 34.873 31.01 31.595 31.01 z M 31.595 21.124 c -2.174 0 -3.943 1.769 -3.943 3.943 s 1.769 3.943 3.943 3.943 s 3.943 -1.769 3.943 -3.943 S 33.77 21.124 31.595 21.124 z" style="stroke: none; stroke-width: 1; stroke-dasharray: none; stroke-linecap: butt; stroke-linejoin: miter; stroke-miterlimit: 10; fill: rgb(0,0,0); fill-rule: nonzero; opacity: 1;" transform=" matrix(1 0 0 1 0 0) " stroke-linecap="round" />
	<path d="M 31.595 18.215 c -0.552 0 -1 -0.448 -1 -1 v -2.034 c 0 -0.552 0.448 -1 1 -1 s 1 0.448 1 1 v 2.034 C 32.595 17.767 32.147 18.215 31.595 18.215 z" style="stroke: none; stroke-width: 1; stroke-dasharray: none; stroke-linecap: butt; stroke-linejoin: miter; stroke-miterlimit: 10; fill: rgb(0,0,0); fill-rule: nonzero; opacity: 1;" transform=" matrix(1 0 0 1 0 0) " stroke-linecap="round" />
	<path d="M 31.595 35.954 c -0.552 0 -1 -0.448 -1 -1 v -2.034 c 0 -0.552 0.448 -1 1 -1 s 1 0.448 1 1 v 2.034 C 32.595 35.506 32.147 35.954 31.595 35.954 z" style="stroke: none; stroke-width: 1; stroke-dasharray: none; stroke-linecap: butt; stroke-linejoin: miter; stroke-miterlimit: 10; fill: rgb(0,0,0); fill-rule: nonzero; opacity: 1;" transform=" matrix(1 0 0 1 0 0) " stroke-linecap="round" />
	<path d="M 23.743 26.067 h -2.034 c -0.552 0 -1 -0.448 -1 -1 s 0.448 -1 1 -1 h 2.034 c 0.552 0 1 0.448 1 1 S 24.295 26.067 23.743 26.067 z" style="stroke: none; stroke-width: 1; stroke-dasharray: none; stroke-linecap: butt; stroke-linejoin: miter; stroke-miterlimit: 10; fill: rgb(0,0,0); fill-rule: nonzero; opacity: 1;" transform=" matrix(1 0 0 1 0 0) " stroke-linecap="round" />
	<path d="M 41.482 26.067 h -2.034 c -0.552 0 -1 -0.448 -1 -1 s 0.448 -1 1 -1 h 2.034 c 0.552 0 1 0.448 1 1 S 42.034 26.067 41.482 26.067 z" style="stroke: none; stroke-width: 1; stroke-dasharray: none; stroke-linecap: butt; stroke-linejoin: miter; stroke-miterlimit: 10; fill: rgb(0,0,0); fill-rule: nonzero; opacity: 1;" transform=" matrix(1 0 0 1 0 0) " stroke-linecap="round" />
	<path d="M 37.148 20.515 c -0.256 0 -0.512 -0.098 -0.707 -0.293 c -0.391 -0.39 -0.391 -1.023 0 -1.414 l 1.438 -1.438 c 0.39 -0.391 1.023 -0.391 1.414 0 c 0.391 0.39 0.391 1.023 0 1.414 l -1.438 1.438 C 37.66 20.417 37.404 20.515 37.148 20.515 z" style="stroke: none; stroke-width: 1; stroke-dasharray: none; stroke-linecap: butt; stroke-linejoin: miter; stroke-miterlimit: 10; fill: rgb(0,0,0); fill-rule: nonzero; opacity: 1;" transform=" matrix(1 0 0 1 0 0) " stroke-linecap="round" />
	<path d="M 24.604 33.058 c -0.256 0 -0.512 -0.098 -0.707 -0.293 c -0.391 -0.391 -0.391 -1.023 0 -1.414 l 1.438 -1.438 c 0.391 -0.391 1.023 -0.391 1.414 0 s 0.391 1.023 0 1.414 l -1.438 1.438 C 25.116 32.96 24.86 33.058 24.604 33.058 z" style="stroke: none; stroke-width: 1; stroke-dasharray: none; stroke-linecap: butt; stroke-linejoin: miter; stroke-miterlimit: 10; fill: rgb(0,0,0); fill-rule: nonzero; opacity: 1;" transform=" matrix(1 0 0 1 0 0) " stroke-linecap="round" />
	<path d="M 26.043 20.515 c -0.256 0 -0.512 -0.098 -0.707 -0.293 l -1.438 -1.438 c -0.391 -0.391 -0.391 -1.023 0 -1.414 s 1.023 -0.391 1.414 0 l 1.438 1.438 c 0.391 0.391 0.391 1.023 0 1.414 C 26.555 20.417 26.299 20.515 26.043 20.515 z" style="stroke: none; stroke-width: 1; stroke-dasharray: none; stroke-linecap: butt; stroke-linejoin: miter; stroke-miterlimit: 10; fill: rgb(0,0,0); fill-rule: nonzero; opacity: 1;" transform=" matrix(1 0 0 1 0 0) " stroke-linecap="round" />
	<path d="M 38.586 33.058 c -0.256 0 -0.512 -0.098 -0.707 -0.293 l -1.438 -1.438 c -0.391 -0.391 -0.391 -1.023 0 -1.414 s 1.023 -0.391 1.414 0 l 1.438 1.438 c 0.391 0.391 0.391 1.023 0 1.414 C 39.098 32.96 38.842 33.058 38.586 33.058 z" style="stroke: none; stroke-width: 1; stroke-dasharray: none; stroke-linecap: butt; stroke-linejoin: miter; stroke-miterlimit: 10; fill: rgb(0,0,0); fill-rule: nonzero; opacity: 1;" transform=" matrix(1 0 0 1 0 0) " stroke-linecap="round" />
	<path d="M 41.482 43.041 H 21.709 c -0.552 0 -1 -0.448 -1 -1 s 0.448 -1 1 -1 h 19.773 c 0.552 0 1 0.448 1 1 S 42.034 43.041 41.482 43.041 z" style="stroke: none; stroke-width: 1; stroke-dasharray: none; stroke-linecap: butt; stroke-linejoin: miter; stroke-miterlimit: 10; fill: rgb(0,0,0); fill-rule: nonzero; opacity: 1;" transform=" matrix(1 0 0 1 0 0) " stroke-linecap="round" />
	<path d="M 41.482 50.775 H 21.709 c -0.552 0 -1 -0.447 -1 -1 s 0.448 -1 1 -1 h 19.773 c 0.552 0 1 0.447 1 1 S 42.034 50.775 41.482 50.775 z" style="stroke: none; stroke-width: 1; stroke-dasharray: none; stroke-linecap: butt; stroke-linejoin: miter; stroke-miterlimit: 10; fill: rgb(0,0,0); fill-rule: nonzero; opacity: 1;" transform=" matrix(1 0 0 1 0 0) " stroke-linecap="round" />
	<path d="M 68.291 43.041 H 48.519 c -0.553 0 -1 -0.448 -1 -1 s 0.447 -1 1 -1 h 19.772 c 0.553 0 1 0.448 1 1 S 68.844 43.041 68.291 43.041 z" style="stroke: none; stroke-width: 1; stroke-dasharray: none; stroke-linecap: butt; stroke-linejoin: miter; stroke-miterlimit: 10; fill: rgb(0,0,0); fill-rule: nonzero; opacity: 1;" transform=" matrix(1 0 0 1 0 0) " stroke-linecap="round" />
	<path d="M 68.291 50.775 H 48.519 c -0.553 0 -1 -0.447 -1 -1 s 0.447 -1 1 -1 h 19.772 c 0.553 0 1 0.447 1 1 S 68.844 50.775 68.291 50.775 z" style="stroke: none; stroke-width: 1; stroke-dasharray: none; stroke-linecap: butt; stroke-linejoin: miter; stroke-miterlimit: 10; fill: rgb(0,0,0); fill-rule: nonzero; opacity: 1;" transform=" matrix(1 0 0 1 0 0) " stroke-linecap="round" />
	<path d="M 50.604 24.423 c -0.008 -0.113 -0.013 -0.226 -0.013 -0.341 c 0 -2.799 2.269 -5.067 5.067 -5.067 c 2.025 0 3.771 1.188 4.583 2.904 c 0.611 -0.434 1.356 -0.692 2.163 -0.692 c 1.867 0 3.41 1.367 3.693 3.154 c 1.285 0.352 2.231 1.525 2.231 2.921 c 0 1.674 -1.357 3.032 -3.032 3.032 H 51.55 c -1.674 0 -3.032 -1.357 -3.032 -3.032 C 48.518 25.958 49.393 24.821 50.604 24.423 z" style="stroke: none; stroke-width: 1; stroke-dasharray: none; stroke-linecap: butt; stroke-linejoin: miter; stroke-miterlimit: 10; fill: rgb(67,144,179); fill-rule: nonzero; opacity: 1;" transform=" matrix(1 0 0 1 0 0) " stroke-linecap="round" />
	<path d="M 65.297 31.334 H 51.55 c -2.223 0 -4.031 -1.809 -4.031 -4.032 c 0 -1.489 0.812 -2.829 2.081 -3.528 c 0.16 -3.203 2.816 -5.76 6.059 -5.76 c 1.979 0 3.827 0.98 4.953 2.565 c 0.565 -0.232 1.172 -0.353 1.793 -0.353 c 2.139 0 3.965 1.398 4.548 3.401 c 1.426 0.643 2.377 2.076 2.377 3.674 C 69.329 29.525 67.521 31.334 65.297 31.334 z M 55.658 20.015 c -2.242 0 -4.066 1.824 -4.066 4.067 c 0 0.091 0.004 0.182 0.011 0.272 c 0.031 0.457 -0.251 0.876 -0.686 1.02 c -0.837 0.274 -1.398 1.05 -1.398 1.929 c 0 1.12 0.911 2.032 2.031 2.032 h 13.747 c 1.12 0 2.032 -0.912 2.032 -2.032 c 0 -0.911 -0.615 -1.716 -1.495 -1.957 c -0.379 -0.104 -0.662 -0.419 -0.724 -0.808 c -0.213 -1.339 -1.351 -2.311 -2.706 -2.311 c -0.569 0 -1.117 0.175 -1.584 0.507 c -0.242 0.171 -0.549 0.227 -0.832 0.152 c -0.286 -0.075 -0.524 -0.272 -0.651 -0.54 C 58.668 20.93 57.224 20.015 55.658 20.015 z" style="stroke: none; stroke-width: 1; stroke-dasharray: none; stroke-linecap: butt; stroke-linejoin: miter; stroke-miterlimit: 10; fill: rgb(0,0,0); fill-rule: nonzero; opacity: 1;" transform=" matrix(1 0 0 1 0 0) " stroke-linecap="round" />
	<path d="M 57.421 83.16 H 32.579 c -0.552 0 -1 -0.447 -1 -1 v -9.812 c 0 -0.553 0.448 -1 1 -1 h 24.842 c 0.553 0 1 0.447 1 1 v 9.812 C 58.421 82.713 57.974 83.16 57.421 83.16 z M 33.579 81.16 h 22.842 v -7.812 H 33.579 V 81.16 z" style="stroke: none; stroke-width: 1; stroke-dasharray: none; stroke-linecap: butt; stroke-linejoin: miter; stroke-miterlimit: 10; fill: rgb(0,0,0); fill-rule: nonzero; opacity: 1;" transform=" matrix(1 0 0 1 0 0) " stroke-linecap="round" />
	<path d="M 68.291 83.16 H 21.709 c -0.552 0 -1 -0.447 -1 -1 s 0.448 -1 1 -1 h 46.582 c 0.553 0 1 0.447 1 1 S 68.844 83.16 68.291 83.16 z" style="stroke: none; stroke-width: 1; stroke-dasharray: none; stroke-linecap: butt; stroke-linejoin: miter; stroke-miterlimit: 10; fill: rgb(0,0,0); fill-rule: nonzero; opacity: 1;" transform=" matrix(1 0 0 1 0 0) " stroke-linecap="round" />
	<path d="M 89 60.273 H 1 c -0.552 0 -1 -0.447 -1 -1 V 13.806 C 0 9.965 3.125 6.84 6.966 6.84 h 76.068 C 86.875 6.84 90 9.965 90 13.806 v 45.467 C 90 59.826 89.553 60.273 89 60.273 z M 2 58.273 h 86 V 13.806 c 0 -2.738 -2.228 -4.966 -4.966 -4.966 H 6.966 C 4.228 8.84 2 11.068 2 13.806 V 58.273 z" style="stroke: none; stroke-width: 1; stroke-dasharray: none; stroke-linecap: butt; stroke-linejoin: miter; stroke-miterlimit: 10; fill: rgb(0,0,0); fill-rule: nonzero; opacity: 1;" transform=" matrix(1 0 0 1 0 0) " stroke-linecap="round" />
	<path d="M 83.034 73.349 H 6.966 C 3.125 73.349 0 70.224 0 66.383 v -7.109 c 0 -0.553 0.448 -1 1 -1 h 88 c 0.553 0 1 0.447 1 1 v 7.109 C 90 70.224 86.875 73.349 83.034 73.349 z M 2 60.273 v 6.109 c 0 2.738 2.228 4.966 4.966 4.966 h 76.068 c 2.738 0 4.966 -2.228 4.966 -4.966 v -6.109 H 2 z" style="stroke: none; stroke-width: 1; stroke-dasharray: none; stroke-linecap: butt; stroke-linejoin: miter; stroke-miterlimit: 10; fill: rgb(0,0,0); fill-rule: nonzero; opacity: 1;" transform=" matrix(1 0 0 1 0 0) " stroke-linecap="round" />
</g>
</svg>